HIERARCHY
ROOT Hips
{
	OFFSET -0.179506 -22.333345 2.821913
	CHANNELS 6 Xposition Yposition Zposition Zrotation Yrotation Xrotation 
	JOINT LeftUpLeg
	{
		OFFSET 6.951974 -9.140623 -0.681533
		CHANNELS 3 Zrotation Yrotation Xrotation
		JOINT LeftLeg
		{
			OFFSET 3.427654 -37.519855 -0.449580
			CHANNELS 3 Zrotation Yrotation Xrotation
			JOINT LeftFoot
			{
				OFFSET -1.359570 -39.796059 -4.369333
				CHANNELS 3 Zrotation Yrotation Xrotation
				JOINT LeftToe
				{
					OFFSET 2.635814 -5.579078 11.928840
					CHANNELS 3 Zrotation Yrotation Xrotation
					End Site
					{
						OFFSET 0.000000 0.000000 0.000000
					}
				}
			}
		}
	}
	JOINT RightUpLeg
	{
		OFFSET -6.767048 -9.052170 -0.431982
		CHANNELS 3 Zrotation Yrotation Xrotation
		JOINT RightLeg
		{
			OFFSET -3.829005 -38.256897 -0.885003
			CHANNELS 3 Zrotation Yrotation Xrotation
			JOINT RightFoot
			{
				OFFSET 1.577377 -39.841461 -4.231180
				CHANNELS 3 Zrotation Yrotation Xrotation
				JOINT RightToe
				{
					OFFSET -2.537174 -4.814398 12.334795
					CHANNELS 3 Zrotation Yrotation Xrotation
					End Site
					{
						OFFSET 0.000000 0.000000 0.000000
					}
				}
			}
		}
	}
	JOINT Spine
	{
		OFFSET -0.253288 10.896323 -2.669631
		CHANNELS 3 Zrotation Yrotation Xrotation
		JOINT Spine1
		{
			OFFSET 0.548704 13.518043 0.109247
			CHANNELS 3 Zrotation Yrotation Xrotation
			JOINT Spine2
			{
				OFFSET 0.145701 5.292222 2.542457
				CHANNELS 3 Zrotation Yrotation Xrotation
				JOINT Neck
				{
					OFFSET -0.277840 21.387037 -4.285703
					CHANNELS 3 Zrotation Yrotation Xrotation
					JOINT Head
					{
						OFFSET 0.515184 6.496960 5.134897
						CHANNELS 3 Zrotation Yrotation Xrotation
						End Site
						{
							OFFSET 0.000000 0.000000 0.000000
						}
					}
				}
				JOINT LeftShoulder
				{
					OFFSET 7.884473 12.174932 -3.408961
					CHANNELS 3 Zrotation Yrotation Xrotation
					JOINT LeftArm
					{
						OFFSET 9.097692 3.046888 -0.886815
						CHANNELS 3 Zrotation Yrotation Xrotation
						JOINT LeftForeArm
						{
							OFFSET 25.961220 -1.277207 -2.745643
							CHANNELS 3 Zrotation Yrotation Xrotation
							JOINT LeftHand
							{
								OFFSET 24.923361 0.898606 -0.117091
								CHANNELS 3 Zrotation Yrotation Xrotation
								End Site
								{
									OFFSET 0.000000 0.000000 0.000000
								}
							}
						}
					}
				}
				JOINT RightShoulder
				{
					OFFSET -8.175920 11.883285 -3.861528
					CHANNELS 3 Zrotation Yrotation Xrotation
					JOINT RightArm
					{
						OFFSET -9.601238 3.255117 -0.914307
						CHANNELS 3 Zrotation Yrotation Xrotation
						JOINT RightForeArm
						{
							OFFSET -25.374195 -1.332924 -2.140099
							CHANNELS 3 Zrotation Yrotation Xrotation
							JOINT RightHand
							{
								OFFSET -25.529810 0.777228 -0.555919
								CHANNELS 3 Zrotation Yrotation Xrotation
								End Site
								{
									OFFSET 0.000000 0.000000 0.000000
								}
							}
						}
					}
				}
			}
		}
	}
}
MOTION
Frames: 17
Frame Time: 0.033333
-226.258759 -230.029694 98.149582 141.903168 1.691737 87.522183 -1.097535 -1.039369 5.764782 3.051926 -3.885348 -6.803986 -1.704948 5.446945 -1.267222 nan nan nan 3.021041 -3.998475 7.371007 -0.130859 -5.593261 -5.287863 8.439194 -2.673226 2.044824 nan nan nan -0.437648 3.364225 5.083910 1.553704 -1.643932 1.300870 2.486940 -0.053346 -0.036157 1.532482 2.956245 -4.089424 4.450302 0.055149 -0.841513 -18.832460 3.064298 2.443719 -68.334153 -10.622037 13.507891 5.231397 -23.401971 -6.877143 -2.325377 -15.693502 -38.094404 18.869726 -1.978758 0.677317 64.830452 7.871262 16.008533 -12.498039 27.110887 -7.878710 9.238964 9.602852 -21.701327 
-226.268219 -230.033386 98.142151 141.841119 1.689363 87.512847 -1.062337 -1.023059 5.768584 2.965849 -3.931869 -6.787014 -1.653291 5.494784 -1.284007 nan nan nan 3.045158 -3.958573 7.374511 -0.171764 -5.490921 -5.291567 8.374106 -2.736119 2.021241 nan nan nan -0.420386 3.397576 5.153844 1.514158 -1.607690 1.057120 2.483668 -0.023569 0.142354 1.559208 2.939862 -4.215448 4.503943 -0.006776 -0.719281 -18.763337 2.975518 2.454765 -68.309212 -10.676730 13.507147 4.988881 -23.386672 -6.982664 -1.675794 -15.486743 -38.468987 18.850995 -1.963197 0.665179 64.968586 7.862419 15.954877 -12.748543 26.885492 -8.323769 8.247066 9.459505 -21.699045 
-226.278778 -230.065796 98.131172 141.773400 1.685517 87.598600 -1.038174 -0.973579 5.627697 2.890286 -3.876611 -6.724201 -1.638024 5.489999 -1.268109 nan nan nan 3.048267 -3.940973 7.183487 -0.170338 -5.515524 -5.164955 8.322568 -2.759340 1.974198 nan nan nan -0.376369 3.379021 5.184215 1.463780 -1.571933 0.851820 2.475756 -0.000760 0.210072 1.503438 2.926736 -4.306338 4.525438 0.052064 -0.564280 -18.699669 2.969949 2.497685 -68.302474 -10.642517 13.483162 4.985437 -23.456760 -6.960454 -1.926805 -15.615895 -38.608858 18.782549 -1.961012 0.685801 65.002317 7.818082 15.978781 -12.595585 27.087154 -8.116058 8.973187 9.763538 -22.091790 
-226.289337 -230.082306 98.119797 141.749908 1.648323 87.666285 -1.030347 -0.983721 5.565743 2.806245 -3.906769 -6.762319 -1.538560 5.562781 -1.254406 nan nan nan 3.011826 -3.925966 7.036260 -0.206977 -5.439951 -5.072861 8.315881 -2.767616 1.841129 nan nan nan -0.387438 3.374384 5.184454 1.449346 -1.567556 0.758529 2.448020 0.015169 0.233644 1.528550 2.936157 -4.305069 4.510367 0.014759 -0.629191 -18.656446 3.028159 2.448494 -68.381050 -10.605303 13.512965 5.002270 -23.518138 -6.657244 -1.321312 -15.182534 -38.479522 18.770911 -1.990631 0.700277 65.168045 7.877404 15.923195 -12.885661 26.764208 -8.296272 7.825661 9.304162 -21.732800 
-226.296280 -230.097290 98.109558 141.708283 1.597055 87.786443 -1.176955 -1.072789 5.406879 2.978791 -4.054628 -6.635340 -1.484922 5.652218 -1.111163 nan nan nan 3.013268 -3.871099 6.856038 -0.305292 -5.352365 -5.021262 8.342430 -2.742410 1.807880 nan nan nan -0.434761 3.390382 5.152535 1.423221 -1.541433 0.646132 2.432287 0.010978 0.237004 1.600998 3.040329 -4.154779 4.574749 0.109780 -0.839689 -18.576155 3.097152 2.400580 -68.374022 -10.511697 13.644582 4.833744 -23.672039 -6.375093 -1.274983 -14.966424 -38.590657 18.699948 -2.062210 0.681694 65.197687 7.864022 16.033334 -12.731000 26.744881 -8.145629 7.419207 8.848863 -21.982184 
-226.365295 -229.996155 98.111565 142.105689 1.484905 88.125870 -1.456706 -1.170862 4.928697 3.506201 -4.521516 -6.366125 -5.182170 5.251965 0.692933 nan nan nan 2.653374 -4.212732 6.555203 -0.078615 -6.110417 -4.986370 8.994788 -2.140031 2.000346 nan nan nan 0.096391 3.280623 4.521885 1.100419 -1.831213 1.085594 2.099899 -0.166963 0.072735 1.226909 3.539731 -3.262056 5.062640 0.233154 -1.915521 -18.178654 3.338892 2.073457 -68.555970 -10.161451 13.717765 4.461435 -23.582787 -6.377280 -1.378094 -16.255028 -38.703618 17.786655 -3.577708 0.246225 65.976554 8.762594 15.037300 -10.404427 26.369091 -6.005048 8.122048 9.178356 -20.586953 
-226.384659 -230.013474 98.124542 142.101994 1.620006 88.183322 -1.201639 -1.034083 4.822306 3.240795 -4.044407 -6.485928 -5.518626 5.129600 0.415432 nan nan nan 2.721372 -4.243143 6.477361 0.045820 -6.275618 -4.916621 9.094440 -2.070945 2.024907 nan nan nan 0.206330 3.249857 4.432340 1.132333 -1.826152 1.027132 2.134667 -0.198302 0.210321 1.308482 3.713032 -3.219310 5.044643 0.356039 -2.006151 -18.112290 3.478442 1.980606 -68.713468 -10.042633 13.669901 4.431464 -23.738794 -6.655886 -1.258982 -16.262460 -38.546044 17.623641 -3.689295 0.228832 66.026250 8.728412 15.123034 -10.299516 26.674241 -5.796090 7.910889 9.208324 -20.542578 
-226.375122 -230.024963 98.148064 142.106016 1.634104 88.141120 -1.110258 -1.036047 4.870498 3.102751 -3.751177 -6.485681 -5.456447 5.063419 0.107732 nan nan nan 2.680140 -4.256779 6.551999 0.110213 -6.398491 -4.926182 9.155003 -1.945854 2.039278 nan nan nan 0.144588 3.280685 4.396211 1.152105 -1.838363 1.094264 2.181801 -0.263136 0.229253 1.419225 3.795418 -3.244776 5.007550 0.368358 -1.955800 -18.116774 3.594893 1.988858 -68.652593 -10.011386 13.490112 4.266477 -23.852744 -7.405679 -1.133052 -16.522504 -37.847486 17.546807 -3.765567 0.237366 66.112734 8.631330 15.250640 -10.365887 26.996983 -5.973508 7.680510 9.408775 -20.499416 
-226.350708 -230.027435 98.173813 142.093992 1.609675 88.079355 -1.098040 -1.035608 4.978210 3.087443 -3.641405 -6.502717 -5.356975 5.020095 0.028205 nan nan nan 2.615240 -4.303564 6.643711 0.138966 -6.481341 -4.933063 9.221474 -1.805754 2.118985 nan nan nan 0.056198 3.328467 4.336642 1.164441 -1.859894 1.205543 2.205734 -0.275894 0.227746 1.476214 3.856528 -3.220314 5.031417 0.372763 -1.908470 -18.079093 3.608109 2.081953 -68.658814 -9.978570 13.379224 4.348841 -23.971286 -7.893926 -0.851897 -16.754122 -37.229586 17.497104 -3.822745 0.266445 66.308039 8.505537 15.292906 -10.593622 27.175864 -6.079840 7.580996 9.511500 -20.402878 
-226.334152 -230.032959 98.193306 142.065295 1.533223 88.042097 -1.159583 -1.054466 5.074372 3.141952 -3.754941 -6.514655 -5.307706 4.985532 0.130987 nan nan nan 2.515967 -4.359613 6.677085 0.136035 -6.469083 -4.916472 9.287635 -1.726887 2.159123 nan nan nan -0.058866 3.377614 4.249104 1.163793 -1.871843 1.311925 2.210156 -0.248526 0.274337 1.463841 3.865052 -3.205713 5.087887 0.363221 -1.942806 -18.025383 3.534050 2.114145 -68.724824 -9.932625 13.407034 4.530408 -24.091097 -7.941357 -0.125738 -16.508724 -36.624587 17.513626 -3.823256 0.265319 66.440199 8.431056 15.241430 -10.726775 27.216615 -6.145438 7.367984 9.463072 -20.324787 
-226.355057 -230.020020 98.204529 142.011094 1.315705 88.134952 -1.559818 -1.221088 5.014997 3.897699 -4.302231 -6.471732 -5.844964 4.722039 0.712005 nan nan nan 2.268747 -4.357152 6.489880 0.071658 -6.626720 -4.806768 9.534705 -1.490798 2.178867 nan nan nan -0.302749 3.430055 4.135541 1.133978 -1.865220 1.568362 2.273421 -0.173713 -0.021229 1.363501 3.808222 -2.790264 5.295232 0.357787 -2.341812 -17.928154 3.426184 2.149984 -68.897129 -9.873349 13.492199 4.610521 -24.020711 -8.184401 0.853528 -16.441652 -35.854924 17.395622 -3.928796 0.299758 66.478893 8.510626 15.008662 -10.376868 27.146135 -5.698426 7.424278 9.557019 -20.248110 
-226.384109 -230.028778 98.202263 141.994778 1.330939 88.149307 -1.592262 -1.214666 4.928135 3.944464 -4.268610 -6.397563 -5.940715 4.706467 0.824502 nan nan nan 2.294166 -4.307821 6.445827 0.030645 -6.687383 -4.803459 9.486244 -1.449369 2.188359 nan nan nan -0.156324 3.375642 4.224735 1.067780 -1.888430 1.472493 2.200642 -0.094530 -0.036429 1.338296 3.729677 -2.642471 5.386841 0.411860 -2.462658 -17.824039 3.451276 2.142860 -69.057834 -9.885156 13.477548 4.635089 -23.937456 -8.198475 0.908563 -16.490290 -35.940942 17.155921 -4.011541 0.329987 66.867281 8.349031 15.018543 -10.596207 27.327319 -5.831017 7.403806 9.639995 -20.315239 
-226.333725 -230.019272 98.200928 142.062494 1.387803 88.194404 -1.489809 -1.098811 4.870880 3.936173 -4.345643 -6.390777 -5.966915 4.672454 0.942969 nan nan nan 2.423489 -4.354873 6.504843 -0.036146 -6.620035 -4.953837 9.429084 -1.545982 2.264901 nan nan nan -0.170910 3.346609 4.051568 1.115572 -1.934520 1.509083 2.189817 -0.095866 0.021434 1.367717 3.658930 -2.497205 5.423351 0.417519 -2.623347 -17.670810 3.538406 2.157118 -69.174648 -9.908687 13.662291 4.607632 -23.930091 -7.671362 0.776703 -16.452647 -36.753573 17.118491 -4.153251 0.264071 66.994233 8.306049 15.118156 -10.614392 27.315986 -5.626592 7.493089 9.681130 -20.434305 
-226.353363 -230.019836 98.189026 142.043490 1.351443 88.333119 -1.604125 -0.970327 4.649761 4.112260 -4.425634 -6.299180 -6.224835 4.671654 0.941883 nan nan nan 2.390353 -4.415567 6.255101 -0.135762 -6.587992 -4.666424 9.830567 -1.476969 2.076942 nan nan nan -0.251514 3.372193 3.825262 1.165105 -1.908751 1.619786 2.208666 -0.060971 -0.013705 1.328552 3.636848 -2.335205 5.489561 0.328104 -2.827045 -17.363862 3.470879 2.062966 -69.534606 -9.841768 14.108582 4.805166 -23.775313 -6.695223 1.786665 -16.144032 -37.486688 16.979421 -4.349152 0.159531 67.104411 8.403746 15.011868 -10.330848 27.175359 -5.121470 7.178236 9.835315 -20.647431 
-226.367401 -230.028839 98.182014 142.032835 1.354903 88.346340 -1.594666 -0.957403 4.599756 4.107417 -4.434238 -6.257777 -6.296859 4.703541 0.921713 nan nan nan 2.396662 -4.445470 6.189432 -0.110244 -6.499975 -4.573141 9.874523 -1.553549 1.959738 nan nan nan -0.262850 3.351843 3.789265 1.200897 -1.922493 1.626560 2.205628 -0.030120 -0.006030 1.355016 3.628854 -2.321253 5.451959 0.294338 -2.746558 -17.281127 3.484994 2.056495 -69.633262 -9.884665 14.256711 4.895967 -23.701071 -6.149445 1.568530 -16.054638 -38.251226 16.917023 -4.372034 0.143795 67.195850 8.412123 15.066627 -10.391120 27.156419 -4.982350 7.227065 9.809471 -20.818500 
-226.392685 -230.043594 98.187859 142.003460 1.383584 88.303611 -1.572248 -0.979786 4.631215 4.144824 -4.417525 -6.249935 -6.384480 4.701857 0.913343 nan nan nan 2.405851 -4.469326 6.177223 -0.104303 -6.522281 -4.509825 9.893812 -1.554528 1.890686 nan nan nan -0.137262 3.326898 3.936840 1.154892 -1.913547 1.591810 2.158471 -0.008938 -0.066889 1.326566 3.616399 -2.358630 5.466033 0.295417 -2.711714 -17.365124 3.480070 2.060221 -69.612832 -9.857063 14.219367 4.963102 -23.741705 -6.123118 1.725945 -15.927999 -38.231892 16.840666 -4.359263 0.139433 67.290840 8.311025 15.098989 -10.415910 27.289475 -4.992246 7.032043 9.764486 -20.919237 
-226.357361 -230.032623 98.182693 142.058950 1.387092 88.326276 -1.498633 -0.957265 4.621168 4.049645 -4.386062 -6.233386 -6.377385 4.633240 0.902141 nan nan nan 2.412245 -4.603539 6.210770 -0.077679 -6.481077 -4.577981 9.904995 -1.571540 1.896135 nan nan nan -0.201831 3.400675 3.741651 1.182221 -1.954537 1.748490 2.199911 -0.063226 -0.032201 1.311441 3.590399 -2.315524 5.523726 0.336575 -2.889209 -17.361669 3.484335 2.048044 -69.640002 -9.833142 14.244033 4.909016 -23.861053 -5.923157 2.240801 -15.462167 -37.957128 16.788334 -4.430261 0.090546 67.347664 8.259057 15.088205 -10.347929 27.397715 -4.923439 6.757748 9.638721 -20.911949 
